<svg width="30" height="30" viewBox="0 0 30 30" fill="none" xmlns="http://www.w3.org/2000/svg">
<path d="M26.0407 15.5865C26.0407 21.9875 21.0949 27.1765 14.9939 27.1765C8.89287 27.1765 3.94702 21.9875 3.94702 15.5865C3.94702 9.18558 8.89287 3.99658 14.9939 3.99658C21.0949 3.99658 26.3314 9.18156 26.0407 15.5865Z" fill="#1E1E1E"/>
<path d="M15.018 0C8.02801 0 1.79188 5.01788 0.329669 11.8508C-0.400864 15.265 0.0912608 18.8955 1.72109 21.9848C3.28969 24.9579 5.86129 27.3608 8.93802 28.7226C12.1384 30.1394 15.8125 30.3863 19.1762 29.4201C22.4213 28.4883 25.2987 26.4431 27.2576 23.6978C31.3534 17.9583 30.8058 9.89626 25.9871 4.7534C23.1629 1.73938 19.1517 0 15.018 0ZM22.2235 15.8027L18.1288 19.9909C17.0921 21.0515 15.4535 19.4447 16.486 18.3891L18.552 16.2759H8.76084C8.06551 16.2759 7.48537 15.6961 7.48537 15.002C7.48537 14.308 8.0659 13.7282 8.76084 13.7282H18.5031L16.396 11.6242C15.349 10.5785 16.9724 8.95681 18.0194 10.0025L22.2139 14.1914C22.6586 14.6351 22.6628 15.3537 22.2235 15.8027Z" fill="white"/>
</svg>
