<svg width="80" height="80" viewBox="0 0 80 80" fill="none" xmlns="http://www.w3.org/2000/svg">
<g clip-path="url(#clip0_463_463)">
<path d="M24.0762 42.066L48.0198 18.2047L48.0204 18.2053L48.3707 17.9092C48.8281 17.5226 49.4042 17.2863 50.0371 17.2863C51.4724 17.2863 52.6363 18.4496 52.6361 19.8861V19.8861C52.6361 20.5191 52.3997 21.0951 52.0131 21.5527L51.7312 21.8862L27.7137 45.8212L27.7128 45.8221C26.3284 47.2086 25.5611 49.0513 25.5536 51.0055V51.0074C25.5536 53.4786 27.6329 55.8497 31.3381 55.8497H31.3393C33.2959 55.8451 35.1398 55.0769 36.5246 53.6901L64.7758 25.445L64.7759 25.445C67.1556 23.0654 68.5012 20.2814 68.6144 17.3898C68.7293 14.4444 67.5388 11.6611 65.2215 9.34376L65.2213 9.34357C62.888 7.01272 59.7792 5.72786 56.4736 5.72786C53.1682 5.72786 50.0611 7.01219 47.7295 9.34373C47.7295 9.34374 47.7295 9.34375 47.7295 9.34376L12.4192 44.6485C5.64957 51.4161 5.64975 62.43 12.4191 69.2019L12.4192 69.202C15.6917 72.4738 20.0526 74.2765 24.6937 74.2765C29.3348 74.2765 33.6963 72.4738 36.97 69.2021L36.9707 69.2013L73.2794 32.7641L73.5216 32.5395C73.9888 32.1061 74.6042 31.8395 75.2826 31.8395C76.7178 31.8395 77.8817 33.0034 77.8817 34.4387C77.8817 35.0035 77.7117 35.4527 77.5411 35.7617C77.4559 35.9162 77.3714 36.0339 77.3104 36.1107C77.28 36.149 77.2557 36.1767 77.2405 36.1935C77.2371 36.1973 77.2341 36.2005 77.2317 36.2031C77.2287 36.2063 77.2264 36.2086 77.225 36.2102C77.2247 36.2105 77.2248 36.2104 77.2245 36.2107L77.2238 36.2114L77.2233 36.2119L77.2231 36.2121L77.2219 36.2133L40.6677 72.8969C36.4061 77.1561 30.7355 79.5001 24.6944 79.5001C18.6533 79.5001 12.9832 77.156 8.72351 72.8976C-0.0832912 64.0907 -0.0832912 49.7592 8.72351 40.9523L44.0338 5.64694L44.034 5.64679C47.3508 2.32748 51.7669 0.5 56.4736 0.5C61.1804 0.5 65.5979 2.32749 68.9173 5.64664C75.592 12.322 75.4292 22.1827 68.4717 29.141C68.4717 29.141 68.4717 29.141 68.4716 29.141L40.2792 57.3267L40.2764 57.3294C37.9125 59.7298 34.7463 61.0617 31.3588 61.0771C31.3585 61.0771 31.3583 61.0771 31.358 61.0771L31.2892 61.0771H31.2891C28.0098 61.0777 25.256 60.0743 23.2883 58.2167C21.3863 56.4205 20.3261 53.8592 20.3258 50.9857C20.333 49.1194 20.6109 47.5577 21.2081 46.1369C21.8055 44.7154 22.7336 43.4082 24.0762 42.066Z" fill="#F1FFA2" stroke="#1E1E1E"/>
</g>
<defs>
<clipPath id="clip0_463_463">
<rect width="80" height="80" fill="white"/>
</clipPath>
</defs>
</svg>
