<svg width="60" height="60" viewBox="0 0 60 60" fill="none" xmlns="http://www.w3.org/2000/svg">
<path d="M8.81907 53.4951L4.10626 0.633728H55.8938L51.1763 53.4872L29.9686 59.3667L8.81907 53.4951Z" fill="white"/>
<path d="M30.0005 54.8728L47.1375 50.1216L51.1692 4.95563H30.0005V54.8728Z" fill="white"/>
<path d="M30.0005 24.1074H38.5795L39.172 17.4684H30.0005V10.9852H46.2576L46.102 12.7247L44.5083 30.5906H30.0005V24.1074Z" fill="#1E1E1E"/>
<path d="M30.0389 40.9448L30.0103 40.9533L22.7902 39.0037L22.3284 33.8329H15.8213L16.7292 44.0128L30.0094 47.6986L30.0389 47.6901V40.9448Z" fill="#1E1E1E"/>
<path d="M38.0283 30.3164L37.2474 38.9986L30.0164 40.9505V47.6958L43.3074 44.0123L43.4049 42.9169L44.5327 30.3164H38.0283Z" fill="#1E1E1E"/>
<path d="M30.0225 10.9852V17.4684H14.3625L14.2327 16.0116L13.9374 12.7247L13.7822 10.9852H30.0225ZM30.0005 24.1083V30.5916H22.8713L22.7414 29.1347L22.4456 25.8478L22.2909 24.1083H30.0005Z" fill="#1E1E1E"/>
</svg>
