<svg width="44" height="44" viewBox="0 0 44 44" fill="none" xmlns="http://www.w3.org/2000/svg">
<path d="M15.245 4.76494C14.3033 4.5446 13.3886 4.22869 12.4511 3.99288C12.1412 3.04705 11.7678 2.14119 11.3223 1.24744C11.1435 0.888474 10.6509 1.02726 10.537 1.35004C10.2034 2.29476 9.57549 3.09286 9.20717 4.02485C8.23014 4.00543 7.2832 4.22251 6.30738 4.28524C5.89204 4.31197 5.70642 4.85896 6.09056 5.08592C6.90301 5.56622 7.68152 6.08941 8.4461 6.63993C8.13226 7.49715 7.86216 8.372 7.59567 9.24461C7.49185 9.58449 7.91518 9.94577 8.22688 9.72019C8.97806 9.17646 9.76172 8.68868 10.5256 8.15208C11.444 8.85669 12.3742 9.46804 13.366 10.0297C13.6989 10.2182 14.0883 9.91552 13.9972 9.54926C13.7897 8.7154 13.5941 7.88215 13.3663 7.05423C14.0273 6.55304 14.6411 5.98551 15.3477 5.55033C15.6524 5.36264 15.6191 4.85251 15.245 4.76494ZM10.3178 7.26933C9.81414 7.62193 9.29938 7.95744 8.78882 8.29929C8.97101 7.72781 9.16231 7.15899 9.37466 6.59894C9.44719 6.40781 9.32309 6.22055 9.17717 6.11373C8.65373 5.73045 8.12461 5.35954 7.58389 5.00522C8.21983 4.92384 8.85448 4.84985 9.50442 4.89694C9.6977 4.91095 9.86484 4.75472 9.91873 4.58147C10.1545 3.82376 10.5926 3.16504 10.9612 2.47153C11.0517 2.66824 11.1393 2.86641 11.2201 3.06768C11.312 3.29696 11.3941 3.53002 11.4745 3.7636C11.5655 4.02829 11.6105 4.45402 11.8126 4.65615C11.9934 4.83704 12.3571 4.85174 12.5946 4.9143C12.8483 4.98099 13.0995 5.0561 13.3506 5.13164C13.6101 5.20967 13.8693 5.28701 14.1293 5.36101C13.6367 5.74248 13.166 6.15429 12.6571 6.5148C12.6368 6.52915 12.619 6.54471 12.6021 6.56069C12.4783 6.65213 12.4043 6.80519 12.4596 6.9988C12.6273 7.5855 12.7748 8.17666 12.9197 8.76869C12.1768 8.29972 11.4614 7.79226 10.7515 7.26942C10.6385 7.18597 10.4313 7.18993 10.3178 7.26933Z" fill="white"/>
<path d="M26.4447 4.76491C25.5029 4.54456 24.5882 4.22866 23.6507 3.99284C23.3407 3.04693 22.9672 2.14115 22.5218 1.2474C22.343 0.888523 21.8504 1.02723 21.7364 1.35001C21.4029 2.29472 20.775 3.09282 20.4068 4.02481C19.4298 4.00539 18.4827 4.22247 17.5068 4.2852C17.0915 4.31193 16.9059 4.85892 17.29 5.08588C18.1026 5.56619 18.8811 6.08938 19.6456 6.63989C19.3317 7.49712 19.0617 8.37196 18.7954 9.24457C18.6917 9.58445 19.1149 9.94582 19.4266 9.72015C20.1777 9.17642 20.9613 8.68864 21.7251 8.15205C22.6435 8.85665 23.5738 9.46801 24.5656 10.0297C24.8985 10.2182 25.2879 9.91548 25.1968 9.54922C24.9894 8.71537 24.7937 7.88212 24.5658 7.0542C25.2269 6.55301 25.8406 5.98548 26.5474 5.55029C26.8519 5.3626 26.8188 4.85248 26.4447 4.76491ZM21.5171 7.2693C21.0134 7.6219 20.4988 7.9574 19.9883 8.29926C20.1705 7.72777 20.3617 7.15887 20.574 6.5989C20.6466 6.40777 20.5225 6.22052 20.3765 6.1137C19.8531 5.73041 19.3241 5.35942 18.7833 5.00519C19.4192 4.9238 20.0539 4.84981 20.7039 4.89691C20.8972 4.91091 21.0643 4.75468 21.1182 4.58143C21.3539 3.82372 21.792 3.16501 22.1606 2.47149C22.2511 2.6682 22.3388 2.86637 22.4195 3.06764C22.5114 3.29692 22.5935 3.52998 22.6738 3.76356C22.7648 4.02825 22.8099 4.45398 23.012 4.65611C23.1929 4.83701 23.5565 4.8517 23.7941 4.91427C24.0477 4.98095 24.299 5.05606 24.5501 5.1316C24.8096 5.20963 25.0687 5.28698 25.3289 5.36088C24.8362 5.74236 24.3654 6.15426 23.8565 6.51477C23.8362 6.52912 23.8183 6.54476 23.8015 6.56066C23.6778 6.65209 23.6037 6.80515 23.659 6.99877C23.8267 7.58546 23.9742 8.17663 24.1191 8.76856C23.3762 8.2996 22.6608 7.79223 21.9508 7.26938C21.8379 7.18594 21.6306 7.18989 21.5171 7.2693Z" fill="white"/>
<path d="M37.8067 4.76494C36.865 4.5446 35.9503 4.22869 35.0128 3.99288C34.7028 3.04705 34.3294 2.14119 33.884 1.24744C33.7052 0.888474 33.2126 1.02726 33.0986 1.35004C32.7651 2.29476 32.1372 3.09303 31.7689 4.02485C30.7919 4.00543 29.8449 4.22251 28.869 4.28524C28.4536 4.31197 28.268 4.85896 28.6522 5.08592C29.4647 5.56622 30.2431 6.08941 31.0077 6.63993C30.6939 7.49715 30.4238 8.372 30.1573 9.24461C30.0535 9.58449 30.4769 9.94577 30.7886 9.72019C31.5397 9.17646 32.3234 8.68868 33.0873 8.152C34.0056 8.85669 34.936 9.46804 35.9277 10.0297C36.2606 10.2182 36.6501 9.91552 36.5589 9.54926C36.3514 8.7154 36.1557 7.88215 35.9279 7.05423C36.5889 6.55304 37.2028 5.98551 37.9094 5.55033C38.214 5.36264 38.1808 4.85251 37.8067 4.76494ZM32.8794 7.26933C32.3757 7.62193 31.861 7.95744 31.3504 8.29929C31.5326 7.72781 31.7238 7.15899 31.9362 6.59894C32.0087 6.40772 31.8846 6.22055 31.7387 6.11373C31.2152 5.73045 30.6862 5.35954 30.1454 5.00522C30.7813 4.92384 31.4161 4.84985 32.066 4.89694C32.2593 4.91095 32.4264 4.75472 32.4803 4.58147C32.7161 3.82376 33.1542 3.16504 33.5227 2.47153C33.6132 2.66833 33.7009 2.86641 33.7816 3.06768C33.8735 3.29696 33.9557 3.53002 34.036 3.7636C34.127 4.02829 34.172 4.45402 34.3741 4.65615C34.5549 4.83704 34.9186 4.85174 35.1562 4.9143C35.4098 4.98099 35.661 5.0561 35.9122 5.13164C36.1716 5.20967 36.4308 5.28701 36.6908 5.36101C36.1982 5.7424 35.7275 6.15429 35.2186 6.5148C35.1983 6.52915 35.1804 6.54462 35.1636 6.56061C35.0398 6.65196 34.9656 6.8051 35.0211 6.9988C35.1888 7.5855 35.3362 8.17666 35.4812 8.7686C34.7383 8.29972 34.023 7.79226 33.3131 7.26942C33.2001 7.18597 32.9929 7.18993 32.8794 7.26933Z" fill="white"/>
<path d="M35.5322 41.1278C35.0587 39.0692 34.1933 37.1483 32.8707 35.4954C31.5871 33.891 29.8781 32.6698 28.0444 31.7664C29.6583 30.4918 30.8622 28.7417 31.544 26.788C33.2199 21.985 31.4601 16.1142 26.7058 13.8461C25.22 13.1373 23.5789 12.8372 21.9401 12.8225C21.9165 12.8204 21.8919 12.8197 21.8658 12.8214C21.8399 12.8213 21.8157 12.8236 21.7922 12.8271C19.1654 13.0213 16.6794 14.046 14.8654 15.9915C13.2134 17.7633 12.2934 20.0895 12.0149 22.4745C11.6007 26.0224 12.8047 29.846 15.4988 32.0995C13.8509 32.9631 12.3535 34.0936 11.1963 35.5655C9.91839 37.1908 9.13894 39.1244 8.67926 41.1277C8.59701 41.4862 8.97437 41.8135 9.31047 41.6129C10.5037 40.9007 11.89 40.3379 13.2244 39.9555C13.2978 39.9344 13.3719 39.9167 13.4465 39.9009C13.4655 39.9069 13.5345 39.9166 13.5677 39.9319C13.9462 40.1072 14.2545 40.4224 14.541 40.7169C15.1787 41.3721 15.7077 42.124 16.2737 42.8393C16.4978 43.1226 16.8322 42.9609 16.9439 42.695C17.065 42.6315 17.1548 42.5107 17.1553 42.3321C17.1636 39.2459 18.053 36.3076 20.2084 34.0419C21.3898 34.1611 22.5987 34.0656 23.7623 33.7911C25.9784 36.0835 27.0449 39.1715 27.056 42.3321C27.0566 42.5105 27.1464 42.6311 27.2673 42.6947C27.3788 42.9608 27.7134 43.1226 27.9375 42.8393C28.48 42.1537 28.9939 41.4466 29.5882 40.8036C29.879 40.4888 30.1921 40.1893 30.5644 39.9734C30.6208 39.9406 30.6762 39.917 30.7357 39.8959C30.741 39.8956 30.7467 39.8956 30.753 39.8959C30.7294 39.8978 30.9402 39.9427 30.9868 39.9555C32.3197 40.3203 33.7141 40.9046 34.9008 41.6129C35.237 41.8137 35.6147 41.4864 35.5322 41.1278ZM16.3194 41.5094C15.8985 40.9666 15.4716 40.429 14.9839 39.9426C14.5002 39.4602 13.8854 38.9236 13.163 39.0837C12.4337 39.2454 11.7222 39.5626 11.0351 39.8479C10.6067 40.0258 10.1746 40.207 9.75287 40.4078C10.1989 38.8534 10.865 37.3676 11.8721 36.0867C13.0397 34.6018 14.587 33.5044 16.2669 32.671C16.9097 33.0951 17.6217 33.4377 18.4024 33.6793C18.663 33.7599 18.9273 33.8279 19.1941 33.8846C17.3515 36.0362 16.4678 38.699 16.3194 41.5094ZM20.8551 33.214C18.4749 33.1418 16.3028 32.0747 14.8235 30.2084C13.4231 28.4416 12.8073 26.1122 12.7959 23.887C12.784 21.5534 13.4784 19.2199 14.8623 17.3322C16.3522 15.2997 18.6817 14.0627 21.1605 13.7468C21.3948 13.7169 21.6302 13.6968 21.8659 13.6808C24.63 13.6909 27.2942 14.6353 29.1272 16.7634C30.7176 18.6098 31.3962 21.1087 31.2992 23.5123C31.1987 26.0056 30.1941 28.4497 28.4556 30.2456C26.4911 32.2751 23.6564 33.299 20.8551 33.214ZM30.7277 39.8966C30.697 39.9045 30.7031 39.899 30.7277 39.8966V39.8966ZM31.0485 39.0836C30.3261 38.9089 29.7132 39.4737 29.2277 39.9425C28.7333 40.4199 28.3077 40.9625 27.889 41.5085C27.7153 38.5706 26.6638 35.7391 24.6926 33.5315C25.3643 33.3129 26.0131 33.0347 26.6236 32.7038C26.8487 32.5819 27.0677 32.4513 27.2811 32.3132C27.3151 32.3516 27.3596 32.3859 27.4169 32.4132C29.2427 33.2864 30.8908 34.4522 32.1906 36.0143C33.257 37.296 33.9836 38.8148 34.4535 40.4061C34.0332 40.2067 33.6028 40.0264 33.1763 39.8477C32.4864 39.5586 31.7775 39.26 31.0485 39.0836Z" fill="white"/>
<path d="M28.1853 31.307C27.9947 29.5364 27.6501 27.7214 26.6849 26.1935C25.7677 24.7418 24.2839 23.8431 22.6231 23.5399C22.6546 23.5207 22.6821 23.4972 22.7052 23.4701C23.4389 23.2372 24.0668 22.7402 24.4777 22.0176C25.0735 20.9701 25.1389 19.5993 24.6937 18.4868C24.1934 17.2366 23.0832 16.4846 21.7425 16.4392C20.4002 16.3939 19.2576 17.1262 18.7657 18.3697C18.3402 19.4451 18.556 20.7347 19.1268 21.7119C19.5423 22.4233 20.1651 22.9361 20.8874 23.2468C20.908 23.3234 20.9461 23.3965 21.0018 23.456C19.6341 23.5795 18.3726 24.2018 17.4101 25.2484C16.1873 26.5781 15.5853 28.3884 15.4616 30.1655C15.4308 30.6074 15.443 31.0514 15.482 31.4921C15.5304 32.0397 16.3902 32.0444 16.3413 31.4921C16.0556 28.2628 17.7975 24.2993 21.4989 24.2854C23.2355 24.2789 24.9116 25.104 25.8878 26.5432C26.8279 27.9291 27.1501 29.6722 27.3261 31.3071C27.3846 31.8521 28.2446 31.8577 28.1853 31.307ZM19.5556 20.5771C19.2367 19.574 19.4083 18.2916 20.3338 17.6631C21.3041 17.0041 22.8238 17.2229 23.5378 18.1587C24.2077 19.0366 24.2953 20.3372 23.8592 21.3368C23.519 22.1165 22.9042 22.576 22.1565 22.7136C20.9341 22.5643 19.9367 21.7762 19.5556 20.5771Z" fill="#FF8DA0"/>
</svg>
