<svg width="44" height="44" viewBox="0 0 44 44" fill="none" xmlns="http://www.w3.org/2000/svg">
<g clip-path="url(#clip0_463_955)">
<path d="M43.875 13.5447C43.8401 13.5169 43.8049 13.489 43.7699 13.4612C43.5723 13.3042 43.3272 13.3205 43.1796 13.5372L43.1365 13.6004C41.9359 12.9047 39.0545 11.7611 38.7733 11.6543C36.7379 10.8814 34.7029 10.1071 32.6668 9.33567C28.704 7.83405 24.7796 6.2868 20.5876 5.56206C20.5543 5.55641 20.526 5.56311 20.4952 5.56394C20.4844 5.56269 20.4728 5.56478 20.4615 5.56457C20.4339 5.5675 20.4067 5.56981 20.3814 5.57776C20.3588 5.58258 20.3378 5.57944 20.3146 5.58865C13.5773 8.29398 6.90013 11.2279 0.267121 14.1788C0.0290989 14.2847 0.0219813 14.5604 0.13377 14.7591C-0.0276329 14.8933 -0.0730602 15.1562 0.168521 15.2781C2.66849 16.5379 5.20362 17.7286 7.75488 18.8831C7.75216 18.9058 7.7442 18.924 7.74546 18.9495C7.98055 23.7267 8.08941 28.8958 9.05594 33.585C9.04045 33.682 9.06118 33.7869 9.14575 33.8813C12.5643 37.7045 17.3989 38.0857 22.2613 37.9191C26.5239 37.7729 30.8194 37.3478 33.3897 33.5706C33.4935 33.4182 33.482 33.2729 33.4171 33.154C33.4253 33.1182 33.4372 33.0853 33.4368 33.0426C33.3972 28.5889 33.4688 24.3101 34.1283 19.898C34.8228 19.5484 35.5122 19.1894 36.1999 18.8277C38.493 22.9555 38.9293 26.9705 38.7777 31.6727C38.7763 31.7213 38.7847 31.7646 38.8006 31.8031C36.73 33.1923 36.3984 36.2751 38.1292 38.3233C38.214 38.4238 38.3907 38.4667 38.5136 38.4248C41.2436 37.4949 42.6215 33.9824 40.9784 31.5193C40.9871 31.5008 40.9993 31.4874 41.0058 31.4661C42.3989 26.8105 41.0673 21.4941 37.7559 17.9828C39.7671 16.8894 41.7512 15.756 43.6795 14.5627C43.8723 14.4434 43.9204 14.2571 43.8805 14.0896C44.0159 13.9324 44.0641 13.6948 43.875 13.5447ZM8.50453 19.2235C9.59835 19.7144 10.6943 20.2003 11.7929 20.6791C12.0569 20.7942 12.3384 20.9263 12.6336 21.0697C11.3277 20.9776 10.0204 20.9058 8.7122 20.8516C8.64228 20.3079 8.57194 19.7594 8.50453 19.2235ZM32.5921 33.042C32.5942 33.059 32.6026 33.0709 32.6061 33.0868C32.6011 33.0933 32.5944 33.0958 32.5896 33.1027C29.874 37.0082 25.0602 36.9902 20.7923 37.0302C17.652 37.0595 14.7406 36.7149 12.1762 35.274C13.2365 35.4547 14.3226 35.5704 15.3881 35.5282C15.5654 35.5213 15.5613 35.2707 15.3881 35.2556C14.1262 35.1476 12.8683 35.0823 11.6099 34.9336C10.9725 34.5254 10.3574 34.0443 9.76771 33.476C12.0066 33.9053 14.3657 33.9981 16.6287 34.1911C16.7922 34.2051 16.788 33.9554 16.6287 33.938C14.3519 33.6906 11.9995 33.3211 9.70323 33.3213C9.71391 32.8921 9.71035 32.4584 9.70721 32.0246C11.4307 32.3108 13.2382 32.5298 14.9728 32.3434C15.1344 32.3261 15.1365 32.106 14.9728 32.0903C13.2202 31.9245 11.4617 31.907 9.70804 31.7217C9.70009 31.1651 9.6802 30.6048 9.6532 30.043C11.3893 29.9829 13.1015 30.0982 14.8342 30.1131C14.9544 30.1141 14.986 29.9243 14.8631 29.8989C13.1748 29.5512 11.3447 29.6172 9.64022 29.8232C9.60274 29.1068 9.54413 28.3864 9.483 27.6659C10.7508 27.8231 12.0416 27.8918 13.3123 27.771C13.4697 27.7561 13.4752 27.5279 13.3123 27.5219C12.0276 27.4735 10.746 27.454 9.46248 27.3845C9.40554 26.7398 9.3396 26.0946 9.26989 25.4502C11.495 25.4718 13.7193 25.5492 15.9435 25.5584C16.148 25.5593 16.1386 25.2677 15.9435 25.2469C13.728 25.0121 11.4644 25.0259 9.2366 25.1458C9.08776 23.8021 8.91924 22.4706 8.75009 21.1505C10.2599 21.2552 11.7705 21.3429 13.2832 21.3932C15.277 22.3976 17.73 23.7344 19.7996 24.1563C19.8073 24.164 19.8094 24.1755 19.8184 24.1822C20.3778 24.5894 21.1643 24.8119 21.8221 25.0085C21.92 25.0378 22.0013 25.0242 22.0647 24.9867L22.2878 25.0108C22.3542 25.0397 22.4292 25.0497 22.5123 25.0183C22.5206 25.0152 22.529 25.0116 22.5374 25.0085C22.5573 25.0035 22.5736 24.9953 22.591 24.9874C26.2147 23.6143 29.8089 22.0425 33.3219 20.306C32.4744 24.4671 32.0874 28.8294 32.5921 33.042ZM39.2596 37.1786C37.8943 38.1663 37.6278 35.4689 37.7911 34.6171C38.0486 33.2738 39.0534 32.3236 40.2584 31.8048C40.2683 31.84 40.275 31.8749 40.2969 31.9114C41.3336 33.6399 40.9229 35.9755 39.2596 37.1786ZM40.3692 31.1657C40.0616 31.2243 39.7813 31.3183 39.5146 31.4282C40.4359 27.0364 39.1125 22.278 36.7637 18.5306C36.973 18.4192 37.1767 18.2997 37.3852 18.1873C40.2783 22.1074 41.2243 26.3475 40.3692 31.1657ZM22.573 24.1992C22.5487 24.1837 22.5278 24.1644 22.4997 24.1535C21.2097 23.6561 19.9311 23.1359 18.6511 22.6184C19.5463 22.7108 20.441 22.7361 21.3381 22.6216C21.4704 22.6046 21.4802 22.4074 21.3381 22.4074C20.3184 22.4074 19.3037 22.3999 18.2888 22.2896C18.1954 22.2795 18.15 22.3461 18.15 22.4183C17.1539 22.0134 16.1637 21.5964 15.1727 21.1815C16.2203 21.2487 17.29 21.3375 18.3219 21.1641C18.4177 21.148 18.4192 20.9839 18.3219 20.969C17.1615 20.7907 15.9575 20.9427 14.7905 21.0228C13.6562 20.5464 12.5319 20.0473 11.4025 19.5597C12.5909 19.6399 13.7795 19.6451 14.973 19.5731C15.0896 19.566 15.0917 19.3914 14.973 19.3902C13.5277 19.3757 12.0847 19.3205 10.6423 19.2315C9.59542 18.777 8.55185 18.3144 7.50723 17.8538C10.1324 17.9853 12.7603 17.9955 15.3881 17.9283C15.528 17.9248 15.5288 17.7096 15.3881 17.7104C12.5346 17.7272 9.68523 17.6501 6.83377 17.5578C5.49398 16.9651 4.15901 16.3587 2.82298 15.7549C4.6585 15.8952 6.48878 15.9174 8.33015 15.8343C8.44717 15.829 8.44864 15.6507 8.33015 15.6513C6.34559 15.663 4.36102 15.5969 2.3798 15.4828C2.34003 15.4805 2.31114 15.4943 2.29188 15.5161C1.80244 15.2942 1.31069 15.0796 0.822088 14.8554C2.00948 14.3693 3.19729 13.8794 4.38489 13.3898C5.74854 13.4023 7.10822 13.3617 8.46874 13.2353C8.61904 13.2213 8.62197 12.9858 8.46874 12.9979C7.32594 13.0877 6.18167 13.1187 5.03657 13.1216C6.08202 12.6897 7.12308 12.2445 8.16749 11.8084C10.1137 11.7448 12.0587 11.6455 14.0029 11.5373C14.1495 11.5292 14.1513 11.3022 14.0029 11.3077C12.2687 11.3715 10.5349 11.446 8.80222 11.5421C10.1177 10.9914 11.4286 10.4307 12.7406 9.87221C14.0975 9.66601 15.453 9.45604 16.8058 9.22095C16.9747 9.19164 16.901 8.94085 16.7355 8.96576C15.7373 9.11502 14.7419 9.27831 13.7471 9.44557C14.937 8.93624 16.1248 8.42272 17.3097 7.90397C18.7474 7.91402 20.1821 7.85038 21.6161 7.69965C21.7647 7.68395 21.7712 7.45451 21.6161 7.46226C20.436 7.5215 19.2561 7.55081 18.0759 7.56337C18.9292 7.18719 19.7829 6.81142 20.6317 6.42706C25.2088 7.51774 29.5432 9.18389 33.9334 10.8586C35.968 11.6349 38.0028 12.4103 40.0374 13.1861C40.7652 13.4637 41.5821 13.9979 42.3954 14.2228C35.8589 17.7475 29.296 21.0339 22.573 24.1992Z" fill="white"/>
<path d="M12.785 23.2649C11.5879 22.9442 10.3966 22.8286 9.1581 22.8757C8.97346 22.8828 8.972 23.1679 9.1581 23.1638C10.3585 23.1365 11.5482 23.2502 12.728 23.4713C12.8618 23.4962 12.92 23.3009 12.785 23.2649Z" fill="white"/>
</g>
<defs>
<clipPath id="clip0_463_955">
<rect width="44" height="44" fill="white"/>
</clipPath>
</defs>
</svg>
