<svg width="60" height="60" viewBox="0 0 60 60" fill="none" xmlns="http://www.w3.org/2000/svg">
<path d="M43.973 43.1775C44.3409 40.1152 44.2308 39.6656 46.5117 40.162L47.0906 40.2127C48.8447 40.2924 51.1392 39.9305 52.4874 39.3042C55.3894 37.9575 57.1097 35.7099 54.2489 36.3C47.722 37.6467 47.2734 35.4366 47.2734 35.4366C54.1655 25.2108 57.0464 12.2297 54.5592 9.05204C47.7764 0.385316 36.0356 4.4836 35.8392 4.58953L35.7764 4.60125C34.4869 4.3336 33.0436 4.17375 31.4222 4.1475C28.4686 4.09875 26.2275 4.92188 24.5273 6.21094C24.5273 6.21094 3.58219 -2.41828 4.55672 17.063C4.76391 21.2072 10.4967 48.4214 17.3348 40.2014C19.8342 37.1958 22.2492 34.6542 22.2492 34.6542C23.4483 35.4506 24.8845 35.8575 26.3902 35.7113L26.5069 35.6119C26.4703 35.985 26.4863 36.3502 26.5533 36.7823C24.7922 38.7506 25.3097 39.0961 21.788 39.8208C18.2245 40.5548 20.318 41.8622 21.6844 42.2039C23.3414 42.6183 27.1744 43.2052 29.7647 39.5798L29.6616 39.9933C30.3525 40.5464 30.3061 43.9669 30.4036 46.4105C30.5016 48.8545 30.6652 51.135 31.1634 52.4798C31.6617 53.8242 32.2495 57.2873 36.878 56.2955C40.7461 55.4686 43.7034 54.2756 43.973 43.1775Z" fill="white"/>
<path d="M35.371 58.7137C33.3239 58.7137 31.9908 57.922 31.1813 57.1575C29.9592 56.0044 29.4746 54.5189 29.1849 53.6315L29.0597 53.2612C28.4766 51.6872 28.2788 49.4208 28.1616 46.5023C28.1438 46.064 28.1316 45.6126 28.118 45.134C28.1081 44.7839 28.096 44.3447 28.0781 43.8853C27.3407 44.2369 26.5578 44.4843 25.7522 44.6203C24.3089 44.8669 22.7574 44.7872 21.1397 44.3826C19.9983 44.0972 18.8124 43.5056 18.1364 42.592C16.1663 44.3175 14.2871 44.0836 13.2633 43.7419C11.4572 43.1395 9.84096 41.4469 8.32174 38.5683C7.2394 36.5175 6.19268 33.8456 5.21018 30.6262C3.49924 25.02 2.41221 19.1151 2.31565 17.1764C2.0119 11.1084 3.64549 6.76872 7.17002 4.27919C12.7299 0.352004 21.1538 2.66154 24.225 3.71013C26.2885 2.46654 28.7161 1.86138 31.4592 1.90497C32.9325 1.92888 34.3355 2.05825 35.6386 2.29075C36.998 1.86325 39.683 1.24966 42.7566 1.2881C48.4196 1.3556 53.1122 3.56247 56.3264 7.67013C58.6205 10.6008 57.4861 16.755 56.6063 20.1628C55.3678 24.9562 53.198 30.0544 50.5327 34.4925C51.2564 34.4976 52.305 34.4109 53.7957 34.1029C56.7366 33.4959 57.5967 35.0728 57.8302 35.7787C58.7653 38.6109 54.7003 40.7512 53.4324 41.34C51.8077 42.0942 49.1588 42.5536 46.9894 42.4542L46.8947 42.4481L46.3247 42.3979L46.2685 42.8733L46.2141 43.3378C46.0683 48.9623 45.2649 52.5244 43.6116 54.8779C41.8786 57.3454 39.4702 58.0369 37.3486 58.4915C36.6249 58.6462 35.9672 58.7137 35.371 58.7137ZM31.0631 38.2429C32.3846 39.3004 32.5003 41.2903 32.6039 45.0089C32.6171 45.4729 32.6292 45.9122 32.6456 46.3223C32.6953 47.5645 32.8121 50.4731 33.2677 51.7022C33.3319 51.8761 33.3896 52.0523 33.4505 52.2394C33.9581 53.7937 34.2127 54.5733 36.4078 54.104C38.2505 53.7089 39.1978 53.3545 39.9394 52.2989C41.0171 50.7642 41.6199 47.677 41.7305 43.1231L43.9725 43.1775L41.746 42.9103L41.8116 42.3544C42.0249 40.5215 42.1786 39.1978 43.4035 38.3222C44.3864 37.62 45.5063 37.6879 46.3983 37.8487C45.4182 37.1081 45.1472 36.2395 45.075 35.8833L44.888 34.9622L45.4135 34.1826C48.4402 29.692 50.9358 24.1729 52.2614 19.0401C53.6236 13.7662 53.2083 10.9654 52.793 10.4358C47.295 3.4106 37.7611 6.31122 36.7655 6.64029L36.5972 6.73122L35.7535 6.88825L35.3213 6.79872C34.1297 6.55122 32.806 6.41435 31.3871 6.39138C29.1577 6.35388 27.3591 6.88075 25.8844 7.99966L24.8611 8.77544L23.6738 8.28654C21.1369 7.24919 13.6856 5.16372 9.75377 7.94857C7.57127 9.49451 6.57705 12.5236 6.7983 16.9518C6.87143 18.4139 7.86471 23.9484 9.50346 29.3161C11.768 36.734 13.8258 39.1983 14.685 39.4847C14.835 39.5353 15.2241 39.2329 15.6113 38.7679C17.2257 36.8326 18.8973 34.9459 20.6241 33.1101L21.9225 31.7437L23.4924 32.7867C24.1252 33.2072 24.8231 33.4458 25.5399 33.4908L29.2838 30.2976L28.7414 35.8326C28.7292 35.9569 28.7232 36.1261 28.7719 36.4401L28.935 37.4892L28.2272 38.2804L28.1456 38.3723L30.2025 39.3215L31.0631 38.2429Z" fill="white"/>
<path d="M54.2489 36.3C47.7215 37.6467 47.2729 35.4366 47.2729 35.4366C54.165 25.2103 57.0459 12.2288 54.5597 9.05205C47.7769 0.385797 36.0351 4.48408 35.8392 4.59048L35.7759 4.60173C34.4864 4.33408 33.0431 4.1747 31.4208 4.14845C28.4672 4.10017 26.227 4.92283 24.5269 6.21189C24.5269 6.21189 3.58123 -2.41686 4.55529 17.0639C4.76248 21.2086 10.4953 48.4228 17.3334 40.2028C19.8328 37.1972 22.2473 34.6556 22.2473 34.6556C23.4469 35.452 24.8826 35.8589 26.3878 35.7127L26.505 35.6133C26.4684 35.9864 26.4853 36.3516 26.5519 36.7838C24.7903 38.752 25.3078 39.0975 21.7861 39.8222C18.2226 40.5563 20.3161 41.8636 21.6829 42.2053C23.3395 42.6197 27.1729 43.2066 29.7628 39.5813L29.6592 39.9947C30.3497 40.5478 30.8344 43.591 30.7533 46.3495C30.6717 49.1081 30.6173 51.0024 31.1615 52.4817C31.7053 53.9611 32.2472 57.2892 36.8765 56.2974C40.7447 55.4686 42.749 53.3203 43.0284 49.7372C43.2262 47.1895 43.6739 47.5664 43.7025 45.2888L44.062 44.2106C44.4764 40.7574 44.1276 39.6436 46.5112 40.1616L47.0901 40.2122C48.8442 40.2919 51.1397 39.93 52.4873 39.3038C55.3889 37.958 57.1097 35.7099 54.2489 36.3Z" fill="white"/>
<path d="M35.6049 57.3314C31.7461 57.3314 30.5236 54.2757 30.0235 53.026C29.2913 51.1946 29.1333 44.0874 29.2964 38.2589C29.2988 38.1606 29.3207 38.0638 29.3607 37.974C29.4007 37.8842 29.4581 37.8032 29.5296 37.7356C29.601 37.6681 29.6851 37.6154 29.7771 37.5805C29.869 37.5456 29.9669 37.5293 30.0652 37.5324C30.1633 37.535 30.26 37.557 30.3497 37.5971C30.4394 37.6372 30.5202 37.6945 30.5877 37.7659C30.6552 37.8372 30.708 37.9212 30.743 38.013C30.778 38.1047 30.7945 38.2025 30.7917 38.3007C30.6038 45.023 30.8705 51.1149 31.4124 52.4705C32.258 54.5841 33.5405 56.4328 37.1663 55.6561C40.6083 54.9178 41.8974 53.6128 42.4716 50.2843C42.9122 47.73 43.7836 40.4635 43.891 39.0296C43.8981 38.9316 43.9246 38.836 43.9688 38.7482C44.013 38.6605 44.0741 38.5823 44.1485 38.5182C44.223 38.4541 44.3094 38.4053 44.4027 38.3747C44.4961 38.344 44.5945 38.3321 44.6925 38.3396C44.8902 38.3545 45.0739 38.4474 45.2033 38.5976C45.3327 38.7479 45.3971 38.9434 45.3825 39.1411C45.2705 40.6341 44.4033 47.8866 43.9458 50.5388C43.268 54.4702 41.5153 56.2533 37.4799 57.1186C36.7941 57.2653 36.1711 57.331 35.6049 57.3314ZM14.6817 42.406C14.3444 42.4048 14.0095 42.3494 13.6899 42.2419C11.1835 41.4057 8.79611 37.3238 6.59392 30.1083C4.91767 24.616 3.85548 18.8832 3.7622 17.0199C3.48611 11.4961 4.90829 7.58815 7.99032 5.40519C14.0874 1.08519 24.3441 5.19894 24.7777 5.37612C24.9614 5.45115 25.1077 5.59607 25.1845 5.77901C25.2614 5.96194 25.2624 6.16791 25.1874 6.35159C25.1123 6.53528 24.9674 6.68163 24.7845 6.75846C24.6015 6.83529 24.3956 6.83631 24.2119 6.76128C24.113 6.72097 14.2777 2.78065 8.85189 6.62769C6.21658 8.49612 5.00673 11.9677 5.25564 16.9453C5.33392 18.5152 6.32626 24.1102 8.02408 29.6714C9.99001 36.113 12.2274 40.1775 14.1628 40.823C14.4666 40.9242 15.391 41.2322 16.7124 39.6432C18.2533 37.7925 19.8521 35.9906 21.5063 34.2403C21.6447 34.1023 21.8316 34.0239 22.0271 34.0219C22.2226 34.02 22.4111 34.0946 22.5522 34.2299C22.6934 34.3652 22.776 34.5503 22.7823 34.7457C22.7887 34.9411 22.7183 35.1312 22.5863 35.2753C22.5638 35.2988 20.3142 37.6505 17.8627 40.5999C16.7016 41.9963 15.5888 42.406 14.6817 42.406ZM47.2266 36.1036C47.091 36.1034 46.958 36.0664 46.8418 35.9965C46.7256 35.9266 46.6306 35.8264 46.567 35.7066C46.5033 35.5869 46.4734 35.4521 46.4805 35.3167C46.4875 35.1813 46.5312 35.0503 46.6069 34.9378C53.5739 24.5996 56.0194 12.1078 53.925 9.43128C51.2888 6.06284 47.5664 4.30362 42.8606 4.2019C39.3764 4.1269 36.607 5.01659 36.1542 5.17175L36.0403 5.21815C35.5852 5.36112 35.236 5.11175 35.1042 4.82019C35.0291 4.65314 35.0177 4.46438 35.0722 4.28952C35.1267 4.11466 35.2433 3.96578 35.4 3.87097C35.4216 3.85831 35.49 3.82925 35.6011 3.78847C36.3703 3.50675 39.1819 2.663 42.6642 2.70284C47.8711 2.75815 52.1724 4.76581 55.102 8.50972C56.4881 10.2811 56.4914 14.3621 55.111 19.7067C53.7038 25.156 51.0558 31.0121 47.8467 35.7741C47.7033 35.9883 47.467 36.1036 47.2266 36.1036ZM47.5828 40.8896C46.3931 40.8896 45.3267 40.7217 44.6883 40.3392C44.032 39.946 43.9069 39.4116 43.8905 39.128C43.7114 35.9827 45.4467 35.4352 46.3317 35.1853C46.2085 34.9988 46.0331 34.7794 45.8517 34.553C45.3356 33.908 44.6288 33.0249 44.0841 31.7039C43.9988 31.4977 43.7316 31.0182 43.4222 30.4627C41.7445 27.4542 38.2538 21.1941 40.4963 17.9883C41.5341 16.5047 43.6008 15.9207 46.6458 16.2464C45.75 13.5174 41.4844 4.9805 31.3627 4.81456C28.3186 4.76394 25.822 5.70003 23.9461 7.59425C19.7461 11.836 19.898 19.5108 19.9003 19.5877C19.9029 19.6859 19.8861 19.7836 19.8509 19.8753C19.8158 19.967 19.7629 20.0509 19.6953 20.1221C19.6277 20.1934 19.5467 20.2506 19.457 20.2906C19.3673 20.3305 19.2705 20.3524 19.1724 20.355C19.0742 20.3576 18.9764 20.3408 18.8847 20.3057C18.793 20.2705 18.7092 20.2176 18.6379 20.15C18.5667 20.0824 18.5094 20.0014 18.4695 19.9117C18.4295 19.822 18.4076 19.7252 18.405 19.6271C18.3956 19.2863 18.2391 11.2322 22.8834 6.54144C25.057 4.34628 27.9183 3.26253 31.3875 3.31925C37.8628 3.42565 42.031 6.71769 44.3869 9.46034C46.9552 12.4496 48.2142 15.7467 48.3178 16.8474C48.3952 17.6658 47.8078 17.8294 47.6892 17.8538L47.4192 17.8599C44.431 17.3813 42.5138 17.7136 41.7211 18.8461C40.0153 21.2841 43.3177 27.2058 44.7277 29.7347C45.0877 30.3797 45.3474 30.8461 45.4664 31.1339C45.9295 32.2571 46.5338 33.0118 47.0189 33.6183C47.4459 34.1518 47.8158 34.6144 47.948 35.1572C48.0094 35.265 48.8808 36.5541 54.0516 35.4868C55.3477 35.2196 56.1249 35.4478 56.3625 36.1664C56.8299 37.5797 54.2077 39.2283 52.756 39.9024C51.4552 40.5071 49.3791 40.8896 47.5828 40.8896ZM45.3816 39.0047C45.5456 39.1702 46.3664 39.4557 48.0661 39.3825C49.5774 39.3178 51.1711 38.9893 52.1274 38.5453C53.3503 37.9772 54.1669 37.3421 54.5897 36.9085L54.3553 36.9516C51.0492 37.6341 48.7106 37.5432 47.4047 36.6811C47.317 36.6231 47.2325 36.5604 47.1516 36.4932C47.01 36.5489 46.8792 36.5855 46.7859 36.6118C46.0453 36.8194 45.2794 37.0346 45.3816 39.0047ZM24.0244 43.1836C23.2031 43.1836 22.3388 43.0716 21.4561 42.8508C20.5416 42.6221 18.9999 41.9335 19.0233 40.8024C19.05 39.5335 20.8955 39.1528 21.5902 39.0099C24.0999 38.4928 24.2635 38.2857 25.0477 37.2896C25.2764 36.9994 25.561 36.638 25.9491 36.2049C26.5252 35.5599 27.1547 35.2332 27.8203 35.2332C28.2839 35.2332 28.6641 35.3902 28.9153 35.4947C29.716 35.8266 30.3839 36.6291 30.6586 37.5886C30.9066 38.4544 30.788 39.2878 30.3258 39.9352C28.8085 42.06 26.6292 43.1836 24.0244 43.1836ZM20.6391 40.8666C20.8645 41.041 21.3164 41.2739 21.8194 41.3996C22.5839 41.5908 23.3255 41.6878 24.0249 41.6878C26.1558 41.6878 27.8667 40.8057 29.1094 39.0657C29.3686 38.7028 29.2908 38.2421 29.2214 37.9997C29.0761 37.4921 28.7152 37.0303 28.3435 36.8761C28.1419 36.7927 27.9745 36.7289 27.8208 36.7289C27.7383 36.7289 27.487 36.7289 27.0642 37.2019C26.7725 37.53 26.492 37.8681 26.2233 38.2153C25.2464 39.4557 24.7988 39.8766 21.8925 40.4752C21.1833 40.6205 20.8195 40.7686 20.6391 40.8666ZM26.3902 37.4166C26.2116 37.4163 26.0391 37.3522 25.9037 37.2358C25.7683 37.1194 25.679 36.9584 25.6519 36.7819C25.6333 36.6577 25.6208 36.5328 25.6144 36.4074C23.7094 36.3717 21.8714 35.5542 20.476 34.0983C18.7116 32.2575 17.9086 29.7071 18.2733 27.1013C18.6694 24.2714 18.5213 21.7735 18.4416 20.4314C18.4195 20.0583 18.4036 19.7888 18.4045 19.6022C18.406 19.3655 18.4106 18.7378 20.5088 17.6742C21.255 17.296 22.7513 16.636 24.3858 16.4668C27.0938 16.1869 28.8788 17.393 29.4131 19.8633C30.8555 26.5327 29.5275 29.4825 28.5577 31.6369C28.3772 32.0382 28.2066 32.4169 28.0702 32.7839L27.9497 33.1074C27.4374 34.4813 26.9944 35.6682 27.1303 36.5546C27.1453 36.6516 27.1409 36.7507 27.1175 36.8461C27.0942 36.9415 27.0522 37.0314 26.9941 37.1105C26.936 37.1897 26.8628 37.2567 26.7788 37.3076C26.6948 37.3585 26.6016 37.3923 26.5045 37.4072L26.3902 37.4166ZM19.905 19.8094L19.9341 20.3433C20.0166 21.7374 20.1703 24.3314 19.7541 27.3089C19.4536 29.4582 20.1099 31.5558 21.5555 33.0633C22.6978 34.2549 24.2011 34.9125 25.7461 34.9125H25.778C25.951 34.1836 26.2383 33.4139 26.5477 32.5847L26.6672 32.2632C26.8214 31.8488 27.0019 31.4475 27.1931 31.0228C28.1264 28.9491 29.2885 26.3677 27.9502 20.1797C27.6853 18.9539 27.0427 18.2447 25.9866 18.0108C23.8172 17.5317 20.5842 19.1635 19.905 19.8094ZM24.4191 19.4921C24.3816 19.7564 24.9033 20.4624 25.5839 20.5566C26.2631 20.6517 26.8444 20.0996 26.8814 19.8352C26.9184 19.5708 26.3972 19.2792 25.7166 19.1846C25.0364 19.0899 24.4552 19.2277 24.4191 19.4921ZM25.74 20.8167L25.5492 20.8036C25.1274 20.745 24.7008 20.4792 24.4088 20.0921C24.3061 19.9561 24.1388 19.6927 24.172 19.4574C24.2194 19.1124 24.6403 18.9057 25.297 18.9057C25.4438 18.9057 25.5966 18.9164 25.7503 18.938C26.1094 18.9877 26.4427 19.0913 26.6888 19.2286C27.1153 19.4667 27.1467 19.7325 27.1275 19.8699C27.075 20.251 26.4689 20.8167 25.74 20.8167ZM24.667 19.5361C24.6881 19.6992 25.0922 20.2374 25.6181 20.31L25.7405 20.3185C26.2261 20.3185 26.5889 19.9364 26.6316 19.8113C26.5866 19.726 26.2744 19.5141 25.6824 19.4316C25.5549 19.4133 25.4263 19.4041 25.2975 19.4039C24.9169 19.4039 24.7149 19.4897 24.667 19.5361ZM45.1069 18.9525C45.1439 19.2169 44.6227 19.9228 43.9425 20.0175C43.2628 20.1122 42.6811 19.5605 42.6436 19.2961C42.608 19.0317 43.1292 18.7397 43.8089 18.6455C44.4886 18.5503 45.0694 18.6886 45.1069 18.9525ZM43.7855 20.1525C43.1311 20.1525 42.5663 19.6435 42.5199 19.313C42.466 18.9164 43.1189 18.615 43.7911 18.5217C43.9392 18.5011 44.0859 18.4908 44.227 18.4908C44.8074 18.4908 45.1917 18.661 45.2302 18.9357C45.255 19.1133 45.1186 19.3875 44.8838 19.635C44.7286 19.7977 44.4028 20.0794 43.9589 20.1408L43.7855 20.1525ZM44.2275 18.7402C44.0981 18.7402 43.9631 18.75 43.8263 18.7688C43.1508 18.863 42.7477 19.1339 42.7674 19.2792C42.7899 19.4391 43.2211 19.9036 43.786 19.9036L43.9252 19.8938C44.2941 19.8427 44.5711 19.6017 44.7033 19.463C44.9109 19.245 44.9935 19.0397 44.9836 18.9699C44.9705 18.8771 44.7211 18.7402 44.2275 18.7402ZM46.0861 34.1353C45.9506 34.1354 45.8176 34.0986 45.7014 34.029C45.5852 33.9593 45.4901 33.8593 45.4264 33.7397C45.3626 33.6201 45.3326 33.4855 45.3395 33.3502C45.3463 33.2148 45.3899 33.0839 45.4655 32.9714C47.0583 30.5925 46.7667 28.1667 46.485 25.8207C46.3645 24.8213 46.2408 23.7877 46.2727 22.7958C46.3055 21.7753 46.4353 20.9335 46.5605 20.1192C46.7091 19.1546 46.8497 18.2433 46.7916 17.1614C46.7863 17.0634 46.8004 16.9652 46.833 16.8726C46.8656 16.78 46.9162 16.6947 46.9818 16.6216C47.0474 16.5485 47.1267 16.4891 47.2153 16.4467C47.3039 16.4043 47.3999 16.3797 47.498 16.3744C47.596 16.3691 47.6942 16.3832 47.7868 16.4158C47.8794 16.4485 47.9647 16.499 48.0378 16.5646C48.1109 16.6302 48.1703 16.7096 48.2127 16.7981C48.2552 16.8867 48.2797 16.9828 48.285 17.0808C48.3516 18.3174 48.1927 19.3486 48.0389 20.3466C47.9203 21.1167 47.7975 21.9132 47.768 22.8436C47.7394 23.7221 47.8514 24.6549 47.97 25.6421C48.27 28.1367 48.6099 30.9642 46.7086 33.8035C46.6401 33.9057 46.5475 33.9895 46.4389 34.0474C46.3303 34.1053 46.2092 34.1355 46.0861 34.1353Z" fill="#1E1E1E"/>
</svg>
