<svg width="44" height="44" viewBox="0 0 44 44" fill="none" xmlns="http://www.w3.org/2000/svg">
<path d="M13.0059 17.126C10.0137 23.8861 15.1609 31.0163 22.2704 31.8544C22.4263 31.9378 22.5103 31.9087 22.5855 31.8885C30.386 32.5851 35.7372 24.9197 33.2201 18.3652C32.4793 16.4364 31.2177 14.6048 29.6087 13.1803C29.8823 12.8614 30.6393 11.9512 30.7279 11.5378C30.8465 10.9672 30.5061 10.508 30.0504 10.1493C29.8628 9.99289 29.6557 9.84651 29.4007 9.68953C28.8347 9.33747 28.0988 9.49102 27.7253 10.0382C27.3953 10.5181 27.2571 10.8064 26.8513 11.3624C26.1056 11.0186 25.3697 10.7532 24.2938 10.5806C24.3064 9.53051 24.3113 9.67297 24.3238 8.76005C24.4775 8.75582 24.6388 8.75063 24.82 8.74307C25.3906 8.71901 25.8524 8.63221 26.1724 7.77484C26.4356 7.07016 26.4843 5.82464 25.7687 5.2606C25.4293 4.99276 25.0297 4.98273 24.7653 4.97615C21.2218 4.88927 20.8879 4.73814 20.4521 5.04031C19.9602 5.3812 19.8903 6.06956 19.8866 6.69833C19.8829 7.38039 19.9428 8.06675 20.4005 8.46549C20.7944 8.80881 21.2401 8.74581 21.9424 8.7498C21.9322 9.49813 21.9254 9.5337 21.913 10.5024C20.676 10.6279 20.0135 10.9126 19.2441 11.2186C18.9439 10.6536 18.8523 10.4121 18.6073 9.93674C18.2945 9.3495 17.5798 9.11404 16.9796 9.4025C16.2006 9.7766 15.3804 10.2342 15.4531 11.0943C15.48 11.3095 15.5691 11.4871 15.6321 11.5965C15.8577 12.0474 16.1105 12.4565 16.3821 12.851C14.919 13.9881 13.7453 15.4554 13.0059 17.126ZM20.9789 7.80206C20.7617 7.61299 20.7655 6.92807 20.7666 6.7032C20.7709 5.96901 20.8987 5.80143 20.9531 5.76362C20.9932 5.73583 21.1138 5.73755 21.204 5.74099C21.2627 5.74243 25.0769 5.83562 25.2239 5.95154C25.5244 6.18815 25.5373 6.96044 25.3479 7.4669C25.2064 7.84589 25.1826 7.84675 24.783 7.86365C24.5743 7.87252 21.1372 7.93934 20.9789 7.80206ZM23.0657 11.3522V12.6011C23.0657 12.844 23.2628 13.0411 23.5057 13.0411C23.7486 13.0411 23.9457 12.844 23.9457 12.6011V11.4247C26.219 11.7262 28.1483 12.8526 29.7545 14.5402L29.1223 15.1723C28.8437 15.4509 29.0456 15.9234 29.4334 15.9234C29.546 15.9234 29.6586 15.8805 29.7445 15.7945L30.3394 15.1996C31.2153 16.2599 31.9055 17.3969 32.3985 18.6809C32.7175 19.5111 32.8968 20.3864 32.9449 21.2733H31.5864C31.3435 21.2733 31.1464 21.4704 31.1464 21.7133C31.1464 21.9562 31.3435 22.1533 31.5864 22.1533H32.9474C32.8437 24.4396 31.8913 26.6665 30.094 28.4087L29.0149 27.3296C28.843 27.1578 28.5646 27.1578 28.3927 27.3296C28.2208 27.5015 28.2208 27.7799 28.3927 27.9518L29.4347 28.9938C27.6009 30.4667 25.39 31.1873 22.9142 31.0309V29.794C22.9142 29.5511 22.7171 29.354 22.4742 29.354C22.2313 29.354 22.0342 29.5511 22.0342 29.794V30.9372C19.8264 30.6062 17.7103 29.573 16.0751 28.005L16.8576 27.2225C17.0295 27.0506 17.0295 26.7722 16.8576 26.6003C16.6857 26.4284 16.4073 26.4284 16.2354 26.6003L15.4648 27.3709C13.937 25.6416 13.0082 23.4944 13.0239 21.1218H14.3935C14.6364 21.1218 14.8335 20.9247 14.8335 20.6818C14.8335 20.4389 14.6364 20.2418 14.3935 20.2418H13.0735C13.3263 17.8697 14.4688 15.7994 16.1275 14.228L16.9647 15.0652C17.0507 15.1511 17.1632 15.1941 17.2758 15.1941C17.3884 15.1941 17.501 15.1511 17.5869 15.0652C17.7588 14.8933 17.7588 14.6149 17.5869 14.443L16.7959 13.652C18.5317 12.2604 20.7744 11.2842 23.0657 11.3522Z" fill="white"/>
<path d="M22.0496 19.4967C21.8679 19.6109 21.7103 19.7338 21.6541 19.7809C21.037 20.3661 20.8156 21.2037 21.0903 21.9161C21.5254 23.0389 23.0358 23.6158 24.148 23.0542C25.2832 22.4815 25.6281 20.9135 24.8635 19.9559C24.8183 19.8986 24.7574 19.8557 24.7055 19.8042L26.2405 17.4777C26.3743 17.2749 26.3185 17.0019 26.1156 16.8682C25.9123 16.7341 25.6398 16.79 25.5061 16.9931L23.9617 19.3335C23.5638 19.1911 23.0994 19.168 22.8844 19.2019L22.8795 19.2028L21.0617 14.5928C20.9726 14.3665 20.7153 14.2559 20.491 14.3447C20.2647 14.4338 20.1539 14.6894 20.243 14.9154L22.0496 19.4967Z" fill="#FFA0D4"/>
<path d="M4.07699 22.0516H4.15232C4.45081 22.0516 4.69774 22.2791 4.71464 22.569C5.2882 32.5341 14.4655 40.3387 25.0406 38.9868C33.3885 37.9191 40.0146 31.2873 40.7961 23.2175C40.9069 22.0733 39.9962 21.1926 38.884 21.2504C37.9699 21.2974 37.2466 22.0032 37.1644 22.9282C36.5874 29.4073 31.296 34.7331 24.582 35.5917C16.2621 36.6606 8.96843 30.5831 8.38102 22.7429C8.35726 22.4286 8.59828 22.1534 8.91584 22.1338C8.91613 22.1338 8.95537 22.1316 8.95566 22.1316C9.6297 22.0907 10.0095 21.337 9.63943 20.7703L7.58725 17.6319C6.95525 16.665 5.57153 16.7605 5.03147 17.7109L3.31128 20.7356C2.97686 21.3238 3.40245 22.0516 4.07699 22.0516ZM5.79631 18.1458C6.02753 17.7393 6.60039 17.73 6.85048 18.1134L8.90295 21.2533L8.86371 21.2556C8.86342 21.2556 8.86399 21.2556 8.86371 21.2556C8.05588 21.3041 7.44338 22.0038 7.50331 22.8085C8.12884 31.1519 15.8684 37.5937 24.6937 36.4648C31.8142 35.5541 37.4276 29.894 38.0409 23.0061C38.0839 22.5223 38.4574 22.1536 38.9289 22.1293C39.516 22.0963 39.9776 22.5362 39.9201 23.1327C39.1779 30.7975 32.8732 37.0979 24.9289 38.1136C14.7448 39.4197 6.12324 31.7242 5.59292 22.5183C5.54938 21.7632 4.9166 21.1716 4.15232 21.1716L4.07613 21.1705L5.79631 18.1458Z" fill="white"/>
</svg>
